<?xml version="1.0" encoding="UTF-8"?>
<svg width="40px" height="40px" viewBox="0 0 40 40" version="1.1" xmlns="http://www.w3.org/2000/svg" xmlns:xlink="http://www.w3.org/1999/xlink">
    <!-- Generator: Sketch 55 (78076) - https://sketchapp.com -->
    <title>family-gatherings</title>
    <desc>Created with Sketch.</desc>
    <g id="Page-1" stroke="none" stroke-width="1" fill="none" fill-rule="evenodd">
        <g id="family-gatherings" fill-rule="nonzero">
            <circle id="Oval" fill="#FFFFFF" cx="20" cy="20" r="20"></circle>
            <path d="M22.8967927,12.4625628 C24.1914389,13.3582371 25.0992637,14.8739045 25.2645451,16.6332508 C25.7925371,16.9054617 26.3785349,17.0620023 26.9998253,17.0620023 C29.2679895,17.0620023 31.1063522,15.0335296 31.1063522,12.5311939 C31.1063522,10.0284727 29.2679895,8 26.9998253,8 C24.7533258,8.00077114 22.9310371,9.99300046 22.8967927,12.4625628 Z M20.2065144,21.7400976 C22.4746786,21.7400976 24.3130413,19.7112393 24.3130413,17.2089037 C24.3130413,14.706568 22.4743292,12.6780953 20.2065144,12.6780953 C17.9386996,12.6780953 16.0992887,14.7069536 16.0992887,17.2092892 C16.0992887,19.7116249 17.9386996,21.7400976 20.2065144,21.7400976 Z M21.9484338,22.0489375 L18.4638962,22.0489375 C15.5646574,22.0489375 13.2059903,24.6519063 13.2059903,27.8509632 L13.2059903,32.5529637 L13.2168227,32.6266072 L13.5103457,32.7280115 C16.2771496,33.6819065 18.6808935,34 20.6593785,34 C24.5237489,34 26.7636091,32.7843044 26.9016348,32.7068053 L27.1759391,32.5537348 L27.2052914,32.5537348 L27.2052914,27.8509632 C27.2063397,24.6519063 24.8476725,22.0489375 21.9484338,22.0489375 Z M28.7424435,17.3712277 L25.2848122,17.3712277 C25.2474229,18.897691 24.6568826,20.2722406 23.7228504,21.2608367 C26.2999126,22.1063871 28.1854486,24.7432859 28.1854486,27.8579034 L28.1854486,29.3068676 C31.599401,29.1688343 33.5667041,28.1011967 33.6963434,28.0294811 L33.9706477,27.8760251 L34,27.8760251 L34,23.1724823 C34,19.973811 31.6413328,17.3712277 28.7424435,17.3712277 Z M13.0008736,17.0627734 C13.8042181,17.0627734 14.5516536,16.8040574 15.1848247,16.3633533 C15.3860976,14.9147747 16.089854,13.6489553 17.0951703,12.7868254 C17.0993635,12.7020005 17.1067016,12.6179467 17.1067016,12.5323506 C17.1067016,10.0296294 15.2679895,8.0011567 13.0008736,8.0011567 C10.7323599,8.0011567 8.89434669,10.0296294 8.89434669,12.5323506 C8.89434669,15.0339151 10.7323599,17.0627734 13.0008736,17.0627734 Z M16.6887807,21.2608367 C15.7592912,20.277253 15.1708474,18.9100292 15.1278672,17.3928195 C14.9996256,17.3824092 14.8727817,17.3712277 14.7420941,17.3712277 L11.2579059,17.3712277 C8.35866717,17.3712277 6,19.973811 6,23.1724823 L6,27.875254 L6.0108324,27.9477407 L6.30435542,28.0499162 C8.52394858,28.8144974 10.5048796,29.1669064 12.2254836,29.27795 L12.2254836,27.8579034 C12.2261825,24.7432859 14.1110196,22.1071582 16.6887807,21.2608367 Z" id="Shape" fill="#C44B48"></path>
        </g>
    </g>
</svg>