<?xml version="1.0" encoding="UTF-8"?>
<svg width="40px" height="40px" viewBox="0 0 40 40" version="1.1" xmlns="http://www.w3.org/2000/svg" xmlns:xlink="http://www.w3.org/1999/xlink">
    <!-- Generator: Sketch 55 (78076) - https://sketchapp.com -->
    <title>house</title>
    <desc>Created with Sketch.</desc>
    <g id="Page-1" stroke="none" stroke-width="1" fill="none" fill-rule="evenodd">
        <g id="house" fill-rule="nonzero">
            <circle id="Oval" fill="#FFFFFF" cx="20" cy="20" r="20"></circle>
            <path d="M9.674,30.876 C9.674,30.876 9.65,31.48 10.24,31.48 C10.974,31.48 17.051,31.472 17.051,31.472 L17.061,25.891 C17.061,25.891 16.965,24.971 17.858,24.971 L20.684,24.971 C21.74,24.971 21.675,25.891 21.675,25.891 L21.663,31.454 C21.663,31.454 27.425,31.454 28.33,31.454 C29.079,31.454 29.045,30.702 29.045,30.702 L29.045,20.413 L19.649,12.055 L9.674,20.413 C9.674,20.413 9.674,30.876 9.674,30.876 Z" id="Path" fill="#C44B48"></path>
            <path d="M6,19.635 C6,19.635 6.847,21.196 8.694,19.635 L19.732,10.297 L30.081,19.577 C32.219,21.119 33.02,19.577 33.02,19.577 L19.732,7.54 L6,19.635 Z" id="Path" fill="#C44B48"></path>
            <polygon id="Path" fill="#C44B48" points="29.83 10.275 27.168 10.275 27.179 13.503 29.83 15.752"></polygon>
        </g>
    </g>
</svg>