<?xml version="1.0" encoding="UTF-8"?>
<svg width="40px" height="40px" viewBox="0 0 40 40" version="1.1" xmlns="http://www.w3.org/2000/svg" xmlns:xlink="http://www.w3.org/1999/xlink">
    <!-- Generator: Sketch 55 (78076) - https://sketchapp.com -->
    <title>fireside-chats</title>
    <desc>Created with Sketch.</desc>
    <g id="Page-1" stroke="none" stroke-width="1" fill="none" fill-rule="evenodd">
        <g id="fireside-chats" fill-rule="nonzero">
            <circle id="Oval" fill="#FFFFFF" cx="20" cy="20" r="20"></circle>
            <g id="Group-23" transform="translate(6.000000, 6.000000)" fill="#C44B48">
                <path d="M23.0039237,17.1499224 L16.3551053,18.8975155 L22.9775912,20.6397515 L25.6528649,19.9349379 C27.1160465,19.5513199 27.7107881,18.6145186 26.9772025,17.8470497 C26.2484045,17.0774845 24.4694991,16.7677019 23.0039237,17.1499224 Z" id="Path"></path>
                <path d="M2.63987253,22.5045031 C1.17376511,22.8895186 0.580619331,23.8249224 1.31234312,24.5958851 C1.83207713,25.1399845 2.87713084,25.4539596 3.96660398,25.4539596 C4.40893648,25.4539596 4.86643008,25.4027174 5.28748378,25.2902174 L11.9360362,23.5444876 L5.31301828,21.8010869 L2.63987253,22.5045031 Z" id="Path"></path>
                <path d="M24.6528649,22.5045031 L4.28854768,17.1499224 C2.82510018,16.7677019 1.04779069,17.0772515 0.313939021,17.8470497 C-0.418316729,18.6145186 0.173499131,19.5510869 1.64093647,19.9349379 L22.0036577,25.2902174 C22.4263073,25.4027174 22.883269,25.4539596 23.3253355,25.4539596 C24.4145426,25.4539596 25.4617242,25.1399845 25.9803943,24.5958851 C26.7110541,23.8223602 26.1171104,22.8897515 24.6528649,22.5045031 Z" id="Path"></path>
                <path d="M10.072916,3.46490683 C9.26379068,7.46902171 6.59729448,7.55939441 5.46180608,11.0224379 C4.54336098,13.8211956 5.49585208,15.8806677 7.72081368,18.0829192 C6.94440448,14.7568323 11.2298228,15.3628658 11.3864878,12.1662819 C12.9305287,13.9662819 14.3975605,14.1242236 13.6238112,16.6453416 C15.9445273,14.6189441 15.8717393,12.8008222 14.8684452,10.5971731 C19.307995,12.348493 15.7857344,16.7343168 19.2977958,17.7246894 C18.7176833,16.1380435 21.7592178,14.4479814 21.0782971,10.6164596 C20.5567012,7.69868011 16.8701539,2.81832298 13.6988188,4.54747351e-13 C13.9719851,3.78237581 11.0001385,9.71995341 10.072916,3.46490683 Z" id="Path"></path>
            </g>
        </g>
    </g>
</svg>