<?xml version="1.0" encoding="UTF-8"?>
<svg width="500px" height="400px" viewBox="0 0 500 400" version="1.1" xmlns="http://www.w3.org/2000/svg" xmlns:xlink="http://www.w3.org/1999/xlink">
    <!-- Generator: Sketch 55 (78076) - https://sketchapp.com -->
    <title>Group 21</title>
    <desc>Created with Sketch.</desc>
    <g id="Page-1" stroke="none" stroke-width="1" fill="none" fill-rule="evenodd">
        <g id="Group-21" transform="translate(-2.000000, 0.000000)">
            <g id="Group-19" opacity="0.05" transform="translate(1.144155, 0.000000)">
                <rect id="Rectangle" fill="#F9F9F9" x="0.85584505" y="0" width="500" height="400"></rect>
                <path d="M81.1341429,62.6514323 C80.1991429,63.6219531 80.5623247,67.0711979 80.5427305,68.3476563 C80.5126494,70.3348177 80.6315942,72.3042188 80.7913831,74.2842188 C80.898461,75.6099479 81.5020162,88.2613802 83.1815942,87.2897135 C84.128461,86.7422917 83.5348409,83.0825 83.5331851,81.9249219 C83.5293214,79.3513802 83.4263831,76.7841406 83.2613506,74.2163281 C83.1079091,71.8324219 83.0115942,69.4763021 83.0999058,67.0878125 C83.1214318,66.5048698 83.6460584,60.0352083 81.1341429,62.6514323" id="Fill-5" fill="#4A4A4A"></path>
                <path d="M121.851765,61.0918672 C113.819265,61.1583255 105.790076,61.5702526 97.7614399,61.8226224 C93.8980795,61.9440807 90.0372029,62.0984818 86.1779821,62.3210599 C84.8629659,62.3969714 82.0425114,61.959263 80.9468945,62.6877266 C78.5147354,64.3050703 82.4371542,64.6831953 83.4828198,64.6436641 C99.3714724,64.0446797 115.265644,63.2557734 131.16782,63.2185339 C138.968502,63.200487 146.76532,63.4313724 154.56683,63.3795234 C157.549005,63.3597578 160.85131,62.0240026 161.604443,65.6328047 C162.454443,69.7050964 161.477771,74.2391589 161.212008,78.3312161 C161.034557,81.0628828 161.097755,83.7378307 161.216148,86.4672057 C161.292041,88.2157474 161.094443,90.1860078 161.391667,91.9018932 C161.677852,93.5541849 162.820385,94.5450443 163.867706,92.694237 C164.493339,91.5882214 164.182041,88.8574141 164.223713,87.5760859 C164.279735,85.8504609 164.227024,84.1254089 164.227024,82.3994974 C164.226472,78.1868411 164.798567,73.9907995 164.72295,69.7790026 C164.674378,67.0630911 164.535563,62.1394453 161.240709,61.4868932 C157.612479,60.7681693 153.152739,61.4909036 149.439784,61.4467891 C140.239638,61.3376484 131.054946,61.0171016 121.851765,61.0918672" id="Fill-7" fill="#4A4A4A"></path>
                <path d="M99.7185925,87.440849 C96.6897776,87.440849 93.6606867,87.4597552 90.6321477,87.5118906 C88.0346802,87.5565781 83.9508166,86.9936875 81.5332841,87.9599115 C79.8782679,88.6213437 79.4386412,90.5423333 81.5332841,91.0539479 C83.8177971,91.6122552 87.260849,90.699599 89.6510601,90.6557708 C101.636612,90.4357708 113.737521,90.149026 125.706239,90.9370729 C136.921271,91.675276 148.352391,92.3911354 159.583982,91.6119688 C160.528917,91.5463698 165.348528,91.3469948 163.149291,89.4686875 C161.866287,88.3724115 156.666109,89.0934271 154.998674,89.0410052 C149.117391,88.856526 143.230313,88.8155625 137.350963,88.5838177 C131.548333,88.3549375 125.771369,87.6766042 119.966807,87.5087396 C113.223106,87.3136615 106.464502,87.440849 99.7185925,87.440849" id="Fill-9" fill="#4A4A4A"></path>
                <path d="M96.6881218,69.5305 C101.408933,69.7447708 106.079518,76.8626875 101.302959,80.3027656 C96.8219692,83.5305781 88.4238036,79.9931042 90.9155731,73.7339896 C90.5573588,74.6389115 91.3684464,72.7508646 91.3786575,72.7382604 C91.8525049,72.1578958 92.7033328,71.5153698 93.2872938,71.0578958 C93.9557029,70.53425 94.6517094,69.9578958 95.4575536,69.6955 C95.9865958,69.5233385 95.9035276,70.1713073 96.6881218,69.5305 M94.3889821,66.9632604 C92.1795341,67.8601615 91.171125,68.8719323 89.6527159,70.7026875 C88.6020828,71.9696927 87.2627808,72.6362812 87.2746477,74.3484427 C87.2771315,74.7274271 87.7454594,75.1439375 87.8263198,75.5088854 C87.9380893,76.0133385 87.8086575,76.6595885 87.8972451,77.1955521 C88.8112711,82.7259167 95.1581218,84.590474 99.8038685,83.5463333 C103.850752,82.6368281 106.877359,78.5980521 105.939875,74.2063594 C104.996044,69.7854479 98.6903133,65.2141458 94.3889821,66.9632604" id="face" fill="#4A4A4A"></path>
                <path d="M92.420901,74.6836849 C92.420901,76.673138 95.4436445,76.673138 95.4436445,74.6836849 C95.4436445,72.716862 92.420901,72.6323568 92.420901,74.6836849" id="Fill-13" fill="#4A4A4A"></path>
                <path d="M96.2026006,74.2809818 C96.2026006,75.8619453 98.6044026,75.8619453 98.6044026,74.2809818 C98.6044026,72.7180651 96.2026006,72.6513203 96.2026006,74.2809818" id="Fill-15" fill="#4A4A4A"></path>
                <path d="M96.9463231,77.54125 C96.1771834,77.8486198 95.2016153,77.21125 94.5701867,77.6311979 C93.4519399,78.3754167 94.5729464,79.0488802 95.172362,79.3479427 C97.871112,80.6942969 98.3513068,76.9817969 96.9463231,77.54125" id="Fill-17" fill="#4A4A4A"></path>
                <path d="M138.162354,73.1319974 C138.082045,73.1675182 137.795584,73.2935599 138.162354,73.1319974 M126.409724,71.3462161 C124.38987,71.8203047 122.684351,73.7813984 120.489805,73.5190026 C118.808019,73.3179089 117.669351,71.6306693 116.009091,71.3854609 C113.885195,71.0715026 108.104919,76.1085859 111.143945,76.9728307 C112.917078,77.4772839 113.900649,74.1085339 115.467078,73.9294974 C116.706201,73.787987 118.391299,75.3678047 119.675406,75.5926745 C122.07086,76.0123359 123.715942,74.640487 125.818864,73.7559036 C128.103929,72.7945495 129.404042,73.6602266 131.391331,74.7287161 C132.959968,75.5720495 134.437256,76.1211901 136.232192,75.7731432 C137.916737,75.4468672 140.032906,73.6459036 141.72849,73.8306693 C143.389302,74.0117109 144.57461,75.8135339 146.28289,75.9808255 C146.987175,76.0495755 148.035601,76.2990807 147.917208,75.1692891 C147.822549,74.2646536 146.851672,74.4179089 146.244253,74.0890547 C144.68224,73.2434297 143.221234,71.7455391 141.336055,71.8732995 C139.918101,71.9695495 138.627094,73.0053828 137.320357,73.5009557 C133.040552,75.1237422 130.63461,70.3610859 126.409724,71.3462161" id="Fill-19" fill="#4A4A4A"></path>
                <path d="M99.6332636,100.03308 C91.3777766,100.111856 83.0944162,100.23933 74.862111,100.927403 C72.9104227,101.090398 52.9817864,103.046622 53.0195948,103.187559 C53.0894162,103.448236 55.652663,103.846413 55.6366565,103.908002 C55.4638967,103.462559 55.0689779,103.27808 54.452176,103.355137 C73.3528091,103.355137 92.1935558,101.59571 111.119027,101.912247 C115.874335,101.991596 120.647582,101.958367 125.399579,102.1142 C126.585991,102.153158 129.52539,103.037169 130.457079,102.480294 C132.902208,101.018497 128.460131,100.849773 127.724384,100.788471 C118.410812,100.013887 108.973053,99.9362572 99.6332636,100.03308" id="Fill-21" fill="#4A4A4A"></path>
                <path d="M50.5729471,104.203226 C49.3387912,105.48971 50.4752523,110.117731 50.5238237,111.857106 C50.5941971,114.371924 50.5362425,116.904502 50.7484666,119.412731 C50.9907717,122.277887 51.3666484,125.330387 52.0897003,128.110179 C52.4879308,129.641585 53.8857393,132.075335 54.4396191,129.292679 C54.8350899,127.305231 54.2345704,124.668669 54.0256581,122.643981 C53.7460964,119.935518 53.6784828,117.262575 53.6679958,114.540934 C53.6586127,112.169346 53.6147328,109.788018 53.4276224,107.423877 C53.3304795,106.196403 52.7365834,101.9657 50.5729471,104.203226" id="Fill-23" fill="#4A4A4A"></path>
                <path d="M81.6236678,127.772273 C75.7652912,127.87683 69.8942198,128.020346 64.0457782,128.400762 C61.6486678,128.556882 59.2534893,128.7892 56.8652101,129.052742 C56.3778399,129.106309 50.9836516,129.334044 53.3940088,131.403705 C54.4818984,132.338132 58.9570932,131.046205 60.4352101,130.91157 C62.9211841,130.684981 65.4066062,130.537742 67.8997555,130.428028 C73.6764438,130.17308 79.4707945,129.947924 85.2532782,130.052195 C95.8137003,130.242689 106.306233,130.327768 116.869691,130.082846 C118.370437,130.048184 130.128311,130.374747 130.527645,128.751387 C130.849431,127.443132 126.644691,128.043262 125.878035,128.067038 C123.065583,128.154408 120.252856,128.13407 117.439301,128.119174 C105.520811,128.05558 93.533051,127.562872 81.6236678,127.772273" id="Fill-25" fill="#4A4A4A"></path>
                <path d="M128.536962,102.032559 C128.722968,107.455502 129.611329,112.872143 129.895306,118.311413 C130.025014,120.797872 130.177903,123.282038 130.294916,125.769356 C130.332725,126.571726 130.021702,128.505033 130.934348,128.966518 C132.186166,129.599591 132.354786,128.323992 132.589088,127.461179 C133.266053,124.968992 132.808212,121.731726 132.746669,119.171934 C132.687335,116.692924 132.683195,114.209617 132.5074,111.735189 C132.327189,109.207195 131.837611,106.727038 131.610484,104.207924 C131.514445,103.142585 131.850306,101.369695 130.762416,100.708549 C129.822173,100.137064 128.496393,100.857221 128.536962,102.032559" id="Fill-27" fill="#4A4A4A"></path>
                <path d="M70.9544568,111.053476 C70.9768107,111.071236 70.9988886,111.089283 71.0209666,111.10733 C70.9988886,111.089283 70.9765347,111.071523 70.9544568,111.053476 M65.9758854,109.446731 C67.8323627,109.998163 69.3571191,109.792486 71.1305282,111.197564 C72.6006419,112.362591 74.108564,114.067018 74.5962101,115.950768 C75.722736,120.302929 71.9035315,122.687981 68.3230445,122.73496 C64.6556256,122.782799 59.2272166,121.898502 59.4151549,117.011236 C59.5592133,113.256341 62.1964211,109.592538 65.9758854,109.446731 M66.1066971,106.9872 C61.2926062,107.236419 57.4093756,112.857018 57.4510477,117.588163 C57.501275,123.3222 63.7507068,124.799466 68.190025,124.839283 C73.2003334,124.883971 78.1965672,121.2872 76.8539536,115.429413 C75.7782068,110.73608 70.7361614,106.737122 66.1066971,106.9872" id="face" fill="#4A4A4A"></path>
                <path d="M61.264236,114.686083 C61.264236,116.285093 63.6941873,116.285093 63.6941873,114.686083 C63.6941873,113.105406 61.264236,113.037515 61.264236,114.686083" id="Fill-31" fill="#4A4A4A"></path>
                <path d="M66.3611451,113.984489 C66.3611451,115.596104 68.8104146,115.596104 68.8104146,113.984489 C68.8104146,112.391208 66.3611451,112.322744 66.3611451,113.984489" id="Fill-33" fill="#4A4A4A"></path>
                <path d="M63.5512604,117.631533 C61.9696532,119.273226 67.5258383,122.151273 68.836163,119.867341 C69.9124617,117.991611 67.5691662,118.613512 66.7384844,118.512106 C65.8357734,118.401533 64.288111,116.867549 63.5512604,117.631533" id="Fill-35" fill="#4A4A4A"></path>
                <path d="M107.973916,114.017518 C107.821579,114.083976 107.821579,114.083976 107.973916,114.017518 M87.1089,111.344861 C85.5074227,111.657101 80.2517734,113.50046 80.180848,115.475877 C80.0511403,119.066346 85.1983318,115.388794 86.3160266,114.916424 C89.3522928,113.633663 90.9476987,116.25046 93.9977636,116.388533 C96.6468383,116.508559 99.0825851,114.15158 101.577942,114.430304 C104.19252,114.722205 105.450134,117.614002 108.468462,116.078585 C110.065247,115.266476 110.024955,114.014367 108.232504,113.896346 C107.14903,113.825018 106.404728,114.290512 105.275166,113.805825 C103.508656,113.048429 102.797195,111.814939 100.683234,112.010877 C99.0881045,112.158689 97.6464162,113.093403 96.0893708,113.4552 C92.5240623,114.283351 90.5464325,110.675408 87.1089,111.344861" id="Fill-37" fill="#4A4A4A"></path>
                <path d="M120.274051,115.576395 C120.163937,115.62452 120.163937,115.62452 120.274051,115.576395 M120.678077,114.081369 C120.695739,114.08939 120.816616,114.263557 120.678077,114.081369 M118.842298,112.940119 C118.773304,112.995406 118.773304,112.995406 118.842298,112.940119 M118.882314,112.926083 C119.23832,113.147515 122.100447,115.182229 120.021535,115.661473 C118.96621,115.904676 118.093028,113.696942 118.882314,112.926083 M117.934619,110.671942 C113.349863,112.845301 118.28345,120.622645 121.8816,117.462723 C123.395593,116.132984 123.594846,113.445432 122.121973,112.060119 C121.239408,111.229963 119.132622,110.103036 117.934619,110.671942" id="point" fill="#4A4A4A"></path>
                <path d="M105.24845,141.288169 C99.5275081,141.289888 93.7563393,141.164992 88.043125,141.517622 C87.0816315,141.576919 83.4189042,141.386711 82.9235308,142.431711 C82.0172321,144.342961 85.7859334,143.394211 86.3334659,143.336919 C97.7091153,142.152987 109.592005,142.834185 121.005187,143.171633 C130.339456,143.447492 139.623774,143.618794 148.947005,144.118951 C151.397654,144.250435 153.846096,144.395669 156.295089,144.549211 C157.093206,144.599341 159.102021,145.149341 159.270365,143.823898 C159.426015,142.597284 156.92017,142.874289 156.294261,142.839914 C151.316242,142.567492 146.341534,142.28218 141.364894,141.990852 C129.386242,141.288742 117.246144,141.285878 105.24845,141.288169" id="Fill-41" fill="#4A4A4A"></path>
                <path d="M82.7398425,143.413518 C81.6712711,144.517815 82.172164,148.734768 82.1423588,150.128674 C82.0901997,152.566435 81.9795341,155.00219 81.9298588,157.439378 C81.8782516,159.986565 81.9500049,162.545497 82.0948912,165.088961 C82.1556055,166.156878 82.9987062,171.318284 84.3261412,168.364612 C84.9192094,167.044612 84.3117906,163.368206 84.3208977,161.872607 C84.3371802,159.15068 84.4782029,156.440211 84.6084627,153.722008 C84.7205081,151.385367 84.7246477,149.046435 84.8228945,146.709221 C84.8540795,145.964143 84.9388036,141.120419 82.7398425,143.413518" id="Fill-43" fill="#4A4A4A"></path>
                <path d="M160.232769,165.188133 C154.665269,165.781388 149.008354,165.500945 143.419604,165.939227 C138.603029,166.316779 133.79087,166.47118 128.961877,166.577456 C118.026958,166.817508 107.073549,167.051544 96.1703669,167.998862 C93.6854968,168.214565 91.2036623,168.443732 88.7121688,168.559461 C87.4661461,168.617326 82.2375422,168.027794 81.8481429,169.393341 C81.1849773,171.719096 86.776487,170.798706 87.9824935,170.762326 C90.6346039,170.68269 93.2742955,170.483315 95.9189545,170.273914 C107.036292,169.393341 118.19613,169.130086 129.337201,168.763992 C135.396487,168.56519 141.413549,168.104279 147.459312,167.684904 C150.472672,167.476076 153.494312,167.469201 156.507396,167.266674 C157.295854,167.21368 160.086503,167.318237 160.65363,166.658523 C161.043305,166.205633 161.141828,165.099904 160.232769,165.188133" id="Fill-45" fill="#4A4A4A"></path>
                <path d="M158.345549,143.809232 C158.536523,149.360221 158.838162,154.906341 159.018373,160.457331 C159.07274,162.126523 158.587578,165.118294 159.481734,166.590404 C160.919282,168.957409 162.041393,166.452331 162.304672,164.977357 C163.13563,160.322122 162.242302,155.179622 162.010208,150.495742 C161.921896,148.708815 162.45563,144.731628 161.624948,143.132331 C160.833731,141.608945 158.274623,141.761914 158.345549,143.809232" id="Fill-47" fill="#4A4A4A"></path>
                <path d="M148.998281,151.715081 C151.131284,152.315784 151.442859,157.137164 149.036089,157.493805 C145.45367,158.024612 147.020375,152.709091 148.998281,151.715081 M148.400797,149.797815 C147.75005,149.776617 146.2482,149.590133 145.847209,150.140706 C145.511625,150.601617 145.850797,151.57357 145.811609,152.012424 C145.670586,153.58107 144.443881,154.486852 144.992242,156.338805 C145.364531,157.595784 146.361349,158.776852 147.576187,159.213414 C153.987063,161.517112 153.908963,148.639091 148.400797,149.797815" id="hola-:)" fill="#4A4A4A"></path>
                <path d="M90.5220893,150.662833 C90.5060828,150.684031 90.4900763,150.705229 90.4743458,150.726427 C90.4900763,150.705229 90.5060828,150.684031 90.5220893,150.662833 M95.5572354,147.877599 C95.5321218,147.654734 95.5070081,147.431583 95.4818945,147.208432 C98.9577873,148.914292 101.723599,152.087391 100.569476,156.346453 C99.6888425,159.59575 96.507138,160.748172 93.542901,159.946089 C90.2615698,159.057781 88.6934854,156.245906 89.5782581,152.792937 C89.9864237,151.199943 91.2398977,149.05924 92.8601412,148.547052 C93.6143782,148.308719 95.2823653,148.916297 95.5572354,147.877599 M93.5246867,146.528667 C92.6454334,146.590255 91.789638,146.971245 91.0721055,147.492026 C91.7438263,146.901349 92.639086,146.549578 93.5246867,146.528667 M93.5498003,144.430073 C91.3778847,144.499109 89.9546867,145.866089 88.6664399,147.507781 C88.262138,148.02312 86.8952386,149.38924 87.0644107,150.083615 C87.1982581,150.632469 87.5484692,151.435125 88.2858718,150.82325 C84.4236153,158.826036 94.4011802,165.651766 100.492203,160.08674 C106.176716,154.89325 100.536911,144.186583 93.5498003,144.430073" id="Fill-51" fill="#4A4A4A"></path>
                <path d="M91.5763929,151.864039 C91.5763929,152.929664 93.1676591,152.929664 93.1676591,151.864039 C93.1676591,150.798414 91.5763929,150.798414 91.5763929,151.864039" id="Fill-53" fill="#4A4A4A"></path>
                <path d="M94.2919497,152.045883 C94.2919497,153.128982 95.9088815,153.128982 95.9088815,152.045883 C95.9088815,150.962784 94.2919497,150.962784 94.2919497,152.045883" id="Fill-55" fill="#4A4A4A"></path>
                <path d="M95.5242565,155.849419 C94.7678117,155.913299 91.9989643,155.646034 91.512974,156.334966 C90.7007825,157.485956 91.9970325,157.52606 92.6337045,157.650383 C93.2071786,157.762388 95.7000519,157.699081 96.0513669,157.169706 C96.3618377,156.701919 96.2892565,155.781815 95.5242565,155.849419" id="Fill-57" fill="#4A4A4A"></path>
                <path d="M128.884521,152.864266 C128.754537,152.920125 128.754537,152.920125 128.884521,152.864266 M118.422346,152.068771 C116.71793,152.199109 115.27431,153.218328 113.644683,153.625099 C111.905219,154.05937 111.152362,153.260724 109.570755,152.737938 C107.925398,152.19424 106.754992,152.409083 105.432524,153.57726 C104.683255,154.239266 103.039278,155.762938 103.507606,156.938849 C104.580041,159.630411 107.007508,155.251323 108.149213,155.047651 C109.930349,154.729969 111.514992,156.349031 113.568791,155.885828 C115.429959,155.466453 117.081388,154.137859 119.025349,154.123536 C120.650836,154.111505 122.182768,155.036193 123.787557,155.259917 C126.237378,155.601661 127.846031,154.697313 130.110674,154.025854 C132.074505,153.443771 133.451615,154.211479 135.298709,154.857156 C136.142914,155.152208 138.959781,156.224995 138.441226,154.279656 C138.294683,153.730229 134.582557,152.747677 134.007151,152.558615 C131.977638,151.892026 130.692427,152.151844 128.759229,152.91812 C127.146989,153.557495 125.790852,153.868875 124.062151,153.517104 C122.157654,153.129526 120.425641,151.910646 118.422346,152.068771" id="Fill-59" fill="#4A4A4A"></path>
                <path d="M191.662113,49.3934009 C191.939336,43.2371142 192.320447,37.0894292 192.52128,30.9294151 C192.620724,27.8769337 192.69878,24.8241655 192.774058,21.7711106 C192.790724,21.0912841 192.807947,20.4117443 192.822669,19.7319177 C192.871558,17.4223425 192.60628,17.2333903 194.857113,17.0283814 C204.898502,16.1131531 214.979613,15.8097974 225.033224,14.9817337 C237.157947,13.9830682 249.346002,13.2934929 261.505169,12.9844027 C266.908502,12.8467744 272.334613,12.5617691 277.73878,12.7352381 C278.93628,12.7736593 281.286558,12.4519531 281.757947,13.4130575 C281.961558,13.8282363 281.534336,15.2569903 281.480169,15.7361089 C281.310724,17.2328168 281.152669,18.7346859 281.055169,20.2388487 C280.480169,29.1101407 280.822947,38.2050788 282.486558,46.9418965 C278.584058,44.6695956 273.653502,42.7149867 269.104891,43.1029266 C264.467669,43.4983213 260.99878,46.2649372 257.287113,48.8113478 C255.187391,50.2515708 254.480169,50.6303354 252.385447,49.2351283 C250.580447,48.0326009 248.872669,46.6577514 247.169613,45.3084204 C244.541558,43.2259319 242.06128,40.9679673 239.512669,38.7848381 C234.826836,34.7706788 228.371002,29.0570965 221.899058,30.739316 C217.275169,31.9412699 213.005447,34.5653832 208.992113,37.133585 C203.029613,40.9490434 197.632113,45.6215248 191.662113,49.3934009 M272.02378,10.0013089 C248.986002,10.0013089 226.120724,12.3074434 203.147947,13.5549867 C200.74878,13.6851602 198.357669,13.8769797 195.966836,14.1152487 C194.373502,14.2740947 190.477113,13.6071708 189.432947,15.0129867 C188.73628,15.9508664 189.334891,16.0916487 189.432947,16.9827921 C189.556558,18.1058965 189.483224,19.4365903 189.45128,20.6253549 C189.374613,23.4897443 189.294058,26.3538469 189.231002,29.218523 C188.993224,40.0452841 188.844613,50.8700381 189.269058,61.6939319 C189.361558,64.0545443 190.194613,67.3229301 189.73878,69.6167354 C189.409058,71.2774505 188.306002,72.2881584 190.849613,72.5949549 C193.352669,72.8971637 196.413224,72.128739 198.918502,71.8827283 C201.438224,71.6349974 203.957669,71.3663354 206.480447,71.1515779 C217.44878,70.2182859 228.523502,70.3593549 239.520724,70.0491177 C250.617113,69.7363 261.717391,69.7162292 272.817391,69.7099213 C277.461836,69.7073407 282.76878,69.9768629 287.300447,68.6570646 C288.894891,68.1925691 289.152669,67.963762 288.759613,66.3302859 C288.684891,66.0203354 288.203502,65.9059319 288.062113,65.3456699 C287.870169,64.5832664 287.96878,63.6565691 287.92378,62.8629124 C287.777113,60.2709124 287.726002,57.6743248 287.607669,55.0806044 C287.410169,50.7470328 286.686836,46.5413407 286.151836,42.2513514 C285.534336,37.2970186 285.566002,32.2667036 285.553502,27.2799708 C285.54628,24.5139283 285.615169,21.7570611 285.830169,18.9987602 C285.968224,17.2296629 286.811836,14.588346 286.384058,12.9385266 C286.171002,12.1170575 285.822113,11.4656168 284.994058,11.1120841 C284.469613,10.8878646 284.028502,11.0633407 283.509891,11.0065691 C282.894891,10.9391885 282.511002,10.8500168 281.774058,10.6776947 C278.617113,9.93880268 275.241002,10.0013089 272.02378,10.0013089" id="Fill-67" fill="#4A4A4A"></path>
                <path d="M269.274447,24.7795404 C269.27278,26.5036218 269.012224,29.0477386 269.781947,30.6711793 C270.758336,32.730443 271.979724,32.0867439 272.303336,30.1516324 C272.488613,29.0428643 272.484169,25.7615758 272.139169,24.7795404 C271.651113,23.3894944 269.274447,22.4427262 269.274447,24.7795404" id="Fill-69" fill="#4A4A4A"></path>
                <path d="M272.075808,25.44526 C270.508308,25.5023184 265.943308,25.1138052 264.882752,26.4152529 C263.063586,28.6474122 266.23053,29.0428069 267.590252,28.9177945 C269.163863,28.7732848 274.026363,29.1259574 275.080252,27.823076 C276.84303,25.6433875 273.308308,25.3988105 272.075808,25.44526" id="Fill-71" fill="#4A4A4A"></path>
                <path d="M197.325111,85.2284336 C204.216222,86.464508 202.072333,97.3136336 195.551778,94.8007699 C193.279833,93.9251097 189.932056,91.3950425 191.187889,88.4139558 C192.125944,86.1866708 195.183167,85.0162566 197.325111,85.2284336 M194.472056,81.8551062 C189.990389,82.6341398 186.9265,87.6420903 188.463167,92.0103558 C189.945389,96.2246496 195.567889,99.3106779 199.714278,97.7961929 C203.672611,96.3502354 205.647333,90.9119097 204.312889,86.9335912 C202.918444,82.7769292 198.375944,81.1764265 194.472056,81.8551062" id="Fill-73" fill="#4A4A4A"></path>
                <path d="M236.387056,86.4974241 C234.6715,86.6445143 233.188722,87.8848896 231.462333,88.1045214 C229.848167,88.309817 228.510389,87.7395196 226.999,87.2836258 C225.172056,86.7328258 223.4965,86.4905427 221.629556,86.9799834 C220.202889,87.3541604 218.795667,88.3565533 217.313722,88.4775515 C214.397611,88.7152471 211.008444,85.2797002 208.731778,89.1654064 C207.640389,91.028263 209.225111,92.2282099 210.857611,91.3594312 C212.559556,90.4539515 211.724,90.1296648 213.835111,90.6646949 C215.5965,91.1105533 217.020111,91.3528365 218.784556,90.7277745 C220.382889,90.1617781 221.785944,89.1258382 223.522889,89.0094276 C225.223722,88.8955975 226.703444,89.6955621 228.329278,90.0407798 C230.328722,90.4651338 232.097889,90.1440011 233.992333,89.4968612 C235.794278,88.8812612 236.513167,88.5446453 238.3315,89.093725 C239.482889,89.4415232 241.998167,90.5462772 243.118722,89.655994 C245.0565,88.1168506 242.462333,87.891771 241.440667,87.6729993 C239.795944,87.3211869 238.094,86.3532011 236.387056,86.4974241" id="Fill-75" fill="#4A4A4A"></path>
                <path d="M275.648944,85.4634913 C275.662833,85.4743869 275.676444,85.4852825 275.689778,85.4961781 C275.676444,85.4852825 275.662556,85.4743869 275.648944,85.4634913 M273.964778,85.0996365 C276.4695,85.2662241 279.178111,89.9777002 275.859222,90.1448612 C273.523111,90.2627055 270.909778,86.1370099 273.964778,85.0996365 M273.613389,81.2443232 C265.693111,83.5280931 269.313667,95.0581922 276.953389,93.7263515 C280.423111,93.1213604 281.599222,88.9701462 280.452,85.8973073 C279.9595,84.577509 278.998944,83.4647267 277.850889,82.7051904 C277.003944,82.1449285 274.581167,80.9659126 273.613389,81.2443232" id="Fill-77" fill="#4A4A4A"></path>
                <path d="M323.263183,24.0260225 C330.154294,25.2620969 328.010405,36.1112225 321.489849,33.5983588 C319.217905,32.7226986 315.870127,30.1926314 317.12596,27.2115447 C318.064016,24.9842597 321.121238,23.8138455 323.263183,24.0260225 M320.410127,20.6526951 C315.92846,21.4317287 312.864571,26.4396792 314.401238,30.8079447 C315.88346,35.0222385 321.50596,38.1082668 325.652349,36.5937818 C329.610683,35.1478243 331.585405,29.7094986 330.25096,25.7311801 C328.856516,21.5745181 324.314016,19.9740155 320.410127,20.6526951" id="Fill-73" fill="#4A4A4A"></path>
                <path d="M362.325127,25.295013 C360.609571,25.4421032 359.126794,26.6824785 357.400405,26.9021103 C355.786238,27.1074059 354.44846,26.5371086 352.937071,26.0812147 C351.110127,25.5304147 349.434571,25.2881316 347.567627,25.7775723 C346.14096,26.1517493 344.733738,27.1541422 343.251794,27.2751404 C340.335683,27.512836 336.946516,24.0772891 334.669849,27.9629953 C333.57846,29.8258519 335.163183,31.0257988 336.795683,30.1570201 C338.497627,29.2515404 337.662071,28.9272537 339.773183,29.4622838 C341.534571,29.9081422 342.958183,30.1504254 344.722627,29.5253634 C346.32096,28.959367 347.724016,27.9234271 349.46096,27.8070165 C351.161794,27.6931864 352.641516,28.493151 354.267349,28.8383687 C356.266794,29.2627227 358.03596,28.94159 359.930405,28.2944501 C361.732349,27.6788501 362.451238,27.3422342 364.269571,27.8913139 C365.42096,28.2391121 367.936238,29.3438661 369.056794,28.4535829 C370.994571,26.9144395 368.400405,26.6893599 367.378738,26.4705882 C365.734016,26.1187758 364.032071,25.15079 362.325127,25.295013" id="Fill-75" fill="#4A4A4A"></path>
                <path d="M390.482716,27.2610802 C390.496605,27.2719758 390.510216,27.2828714 390.52355,27.293767 C390.510216,27.2828714 390.496328,27.2719758 390.482716,27.2610802 M388.79855,26.8972254 C391.303272,27.063813 394.011883,31.7752891 390.692994,31.9424501 C388.356883,32.0602944 385.74355,27.9345988 388.79855,26.8972254 M388.447161,23.0419121 C380.526883,25.325682 384.147439,36.8557811 391.787161,35.5239404 C395.256883,34.9189493 396.432994,30.7677351 395.285772,27.6948962 C394.793272,26.3750979 393.832716,25.2623156 392.684661,24.5027793 C391.837716,23.9425174 389.414939,22.7635015 388.447161,23.0419121" id="Fill-77" fill="#4A4A4A"></path>
                <path d="M188.446375,154.93625 C188.212533,153.863193 188.33908,152.223151 188.326058,151.843964 C188.264947,150.066552 188.243558,148.288279 188.177169,146.51144 C188.019391,142.277076 187.914669,138.018339 187.598558,133.793437 C187.296613,129.754906 186.533835,125.838807 186.511891,121.770169 C186.497169,119.018463 185.756613,112.046155 188.090502,110.176991 C192.101335,107.76018 190.515224,116.287115 190.449391,117.762892 C190.251613,122.205992 190.519947,126.45326 190.953002,130.868261 C191.349669,134.914821 190.893558,138.94303 190.741335,142.989876 C190.660502,145.138311 190.616335,147.283592 190.459669,149.4283 C190.410998,150.097119 190.485953,153.110905 190.146224,154.716171 C191.020742,154.677454 191.852611,154.71783 192.316697,154.703336 C195.565863,154.601835 198.815308,154.51295 202.063919,154.386791 C214.561141,153.901651 227.065308,154.120996 239.56003,153.508263 C251.378085,152.928217 263.239474,152.805212 275.066419,152.655254 C276.101141,152.74844 276.563919,153.869824 275.899752,154.731722 C275.25003,155.574982 272.237808,155.390044 271.298919,155.46832 C267.967808,155.744723 264.643085,155.869162 261.301974,155.902136 C254.265863,155.971237 247.256419,156.282621 240.231974,156.696366 C227.751141,157.430957 215.251974,157.370171 202.764474,157.894592 C199.733363,158.021899 196.701974,158.117092 193.669474,158.199095 C192.070308,158.242391 187.88253,159.237042 187.090308,157.264083 C186.530725,155.869962 187.308599,155.228277 188.446375,154.93625 Z M257.578363,104.754263 C261.359474,104.718135 265.119752,104.786376 268.895308,105.010022 C270.569752,105.109229 272.243363,105.204996 273.918919,105.278111 C274.886974,105.320546 277.098363,104.992819 277.947252,105.456454 C281.280308,107.277162 274.49003,107.476723 273.664474,107.462387 C270.200585,107.402174 266.743363,107.123764 263.279752,107.036026 C250.540308,106.712886 237.705863,107.513424 224.977808,108.052468 C218.85503,108.311955 212.735585,108.348943 206.61503,108.703909 C203.269752,108.898022 199.926141,109.119948 196.580308,109.302019 C195.037808,109.386029 193.494752,109.467459 191.95003,109.507601 C190.998641,109.532546 189.061141,109.93941 188.181697,109.5681 C187.432808,109.251842 186.827252,108.809711 187.238919,107.872691 C187.682252,106.864277 189.611697,107.293505 190.428363,107.277162 C193.376697,107.218097 196.318641,107.047208 199.261697,106.861123 C205.944197,106.438776 212.61253,105.944748 219.308641,105.826904 C232.068919,105.602111 244.812252,104.876408 257.578363,104.754263 Z M275.130974,109.244587 C275.133197,107.437929 277.231252,107.074648 278.161808,108.303267 C279.051808,109.478556 278.47903,113.036821 278.500697,114.442924 C278.572363,119.07641 278.99653,123.683232 279.399585,128.295501 C279.799585,132.869922 280.082641,137.44635 280.391252,142.02794 C280.534308,144.145409 282.110141,152.596648 279.819585,153.830428 C276.896252,155.404839 277.447919,147.394297 277.365974,145.934003 C277.103197,141.233423 276.772919,136.526534 276.360974,131.83771 C275.695141,124.257543 275.125419,116.855433 275.130974,109.244587 Z" id="Image-Border" fill="#4A4A4A"></path>
                <path d="M236.522674,131.003138 C240.530982,132.47413 244.516731,134.010769 248.484911,135.593918 C250.608244,136.440906 252.720189,137.315419 254.8388,138.174449 C255.899911,138.604538 260.312411,139.684633 260.5663,140.778778 C260.924355,142.323656 256.220744,140.426106 255.472411,140.178948 C253.358522,139.481345 251.271022,138.700304 249.183522,137.923564 C244.512689,136.186007 239.861855,134.393398 235.172689,132.708598 C234.734053,132.550983 234.295228,132.39391 233.856218,132.23737 C228.878897,134.545845 223.911499,136.876564 218.96028,139.24426 C216.305558,140.513881 213.665002,141.813035 211.031669,143.129679 C209.079447,144.10598 205.546114,146.891233 203.395558,146.842777 C202.581947,146.824139 202.033614,146.644076 201.948614,145.625626 C201.84028,144.323318 203.871947,143.788288 204.69278,143.364508 C207.507225,141.911095 210.339169,140.494384 213.179169,139.095449 C218.819725,136.317364 224.513058,133.650242 230.226669,131.036164 C230.259549,131.02112 230.29243,131.006072 230.325312,130.991018 C227.156553,129.883655 223.978923,128.802653 220.794355,127.744516 C218.974355,127.139812 206.2138,123.888056 206.679078,122.14247 C207.201578,120.185854 218.503522,124.79927 220.241855,125.371288 C224.521471,126.779632 228.789201,128.227733 233.034662,129.741681 C243.222734,125.015424 253.518881,119.97947 264.145836,116.540462 C264.815002,116.32427 265.238058,117.036784 265.086114,117.634607 C264.88278,118.434858 262.499169,119.082571 261.83778,119.387647 C259.220558,120.594476 256.590002,121.771485 253.97278,122.979173 C248.271114,125.609881 242.558614,128.215931 236.85778,130.848359 C236.746074,130.899942 236.634371,130.951535 236.522674,131.003138 Z" id="Image-X" fill="#4A4A4A"></path>
                <path d="M198.836861,164.097747 C201.442694,164.56941 203.28075,167.150515 202.994917,169.853764 C202.608528,173.506076 199.08325,175.17998 195.826583,174.703442 C192.131306,174.162678 191.354083,170.937014 193.144361,167.833782 C193.54075,167.146787 193.996583,166.324745 194.717139,165.962897 C195.212417,165.714306 195.843528,165.934224 196.242417,165.733803 C197.641028,165.031039 196.800194,163.911088 198.836861,164.097747 M197.650472,161.711902 C194.47075,162.131382 188.595472,165.930784 188.892972,169.732193 C189.151028,170.17289 189.539083,170.35324 190.057139,170.273244 C189.932417,171.09672 189.972972,171.911308 190.179083,172.717293 C190.481028,173.763555 191.083528,174.621152 191.891028,175.302412 C193.553806,176.705647 195.826861,177.050005 197.897417,176.803994 C201.763806,176.344947 204.811028,173.616465 205.02825,169.464104 C205.240194,165.41095 201.813806,161.168844 197.650472,161.711902" id="Fill-117" fill="#4A4A4A"></path>
                <path d="M213.051278,166.658407 C211.624611,167.439161 209.367667,168.638535 208.531,170.12148 C207.647111,171.687576 208.562389,173.401048 210.424611,172.660149 C211.902944,172.072075 212.843222,170.203197 214.420167,169.604227 C215.811833,169.075792 216.372667,169.345027 217.8435,169.871455 C219.359056,170.413653 220.683778,170.937788 222.322111,170.804747 C224.381278,170.637586 226.164611,169.404666 228.180167,169.124248 C229.877111,168.887986 231.276556,169.56982 232.901833,169.841062 C234.787389,170.1556 236.020167,169.418715 237.784333,169.035076 C238.984333,168.773869 241.099333,169.836188 241.974611,169.438786 C243.942667,168.545349 241.860722,167.452924 240.771278,167.091937 C238.936,166.484078 237.806556,167.020542 236.061,167.524606 C234.165722,168.071965 233.347111,167.660514 231.535444,167.157884 C227.870167,166.140868 225.0385,168.599827 221.564333,168.152822 C218.347667,167.73879 216.422944,164.815048 213.051278,166.658407" id="Fill-119" fill="#4A4A4A"></path>
                <path d="M272.985222,164.841484 C276.513278,168.25696 272.549944,173.116387 268.659667,170.386759 C267.290778,169.425941 267.268833,167.882783 268.334389,166.502199 C269.308833,165.239459 271.449944,164.747152 272.985222,164.841484 L272.985222,164.841484 Z M271.677444,162.081463 C268.381333,162.743513 265.272167,164.305307 264.973833,168.233449 C264.682444,172.066111 268.489667,173.846104 271.688,173.594645 C278.868556,173.030082 278.349389,160.749622 271.677444,162.081463 L271.677444,162.081463 Z" id="Fill-121" fill="#4A4A4A"></path>
                <path d="M331.122464,88.3081048 C331.210917,88.2940749 331.297119,88.2841796 331.379934,88.2787208 C333.567603,88.134295 335.784002,88.1940178 337.976091,88.1411861 C342.464418,88.0329386 347.129824,88.288196 351.592183,87.7412158 C352.49913,87.618899 352.816272,88.8297208 352.409347,89.4573842 C351.952696,90.161998 350.491304,90.1261069 349.814753,90.2303347 C347.834,90.5355525 345.827002,90.6420772 343.828568,90.7342455 C341.729578,90.8310079 339.628929,90.9033644 337.528557,90.9642356 C335.709413,91.0164931 331.672489,91.8083941 329.989539,91.0159188 C328.678079,90.3984045 328.708669,89.7127222 329.243956,89.1814887 C328.919416,88.4391385 328.972892,87.2234584 328.903246,86.6400198 C328.612073,84.1951188 328.43665,81.7815149 328.432506,79.3156535 C328.424219,74.4855743 328.433611,69.4691485 329.717372,64.7938317 C329.20326,64.5595347 328.893025,64.2141188 328.894406,63.7162376 C328.901312,60.7593861 339.324164,61.4654356 341.437796,61.4068614 C344.035429,61.3362277 346.633614,61.3270396 349.231799,61.3416832 C350.948728,61.3511584 353.270933,60.9655446 354.98068,61.3790099 C358.309561,62.1832574 358.098778,68.1225149 358.167013,70.9943762 C358.289395,76.1457525 358.218397,81.5612871 357.816168,86.700604 C357.677488,88.4750594 356.4371,90.7241386 355.022118,88.2780891 C354.233132,86.9142277 354.584805,83.7282475 354.5837,82.221396 C354.579833,76.8644356 355.3865,71.3455347 354.614917,66.0161386 C354.361867,64.2689604 354.417947,64.1509505 352.709858,64.187703 C351.3551,64.2169901 350.000342,64.2637921 348.645584,64.2933663 C345.886618,64.3536634 343.126547,64.393 340.368687,64.4980891 C339.321401,64.5382871 335.557694,65.2225149 332.622477,65.2199307 C332.623858,65.2443366 332.626344,65.2687426 332.626897,65.2937228 C332.66723,67.3590396 331.694258,69.8656733 331.561931,72.0386634 C331.243684,77.2649802 331.623536,82.6136139 331.153349,87.8135149 C331.139107,87.9712089 331.131276,88.1390629 331.122464,88.3081048 Z" id="Wireframy-Stuff" fill="#4A4A4A"></path>
                <path d="M370.637993,89.8190805 C370.29664,89.4565893 369.989406,88.9242695 369.79213,88.2601149 C369.084086,85.875798 369.017232,83.3028376 368.964744,80.8303723 C368.852624,75.5460352 368.908337,70.2524135 368.877856,64.9662177 C368.417274,64.3224382 368.690772,63.5861504 369.265503,63.0724376 C370.818337,61.6853188 375.292298,62.0373386 377.263106,61.928804 C380.0997,61.7726059 382.938227,61.7367149 385.778412,61.725804 C388.785732,61.7100119 391.797195,61.7662891 394.803134,61.8624772 C395.918102,61.8980812 403.672323,62.1010812 400.206419,64.0575762 C400.008003,64.1695918 399.784657,64.2631841 399.540981,64.3408737 C399.685053,65.2298626 399.702532,66.147723 399.679351,66.5898792 C399.532106,69.4031663 399.468844,72.2216218 399.348673,75.0363446 C399.214965,78.1781069 399.087335,81.3195822 398.983463,84.4627802 C398.928211,86.1243941 399.474645,89.987998 398.211052,91.1876218 C397.35952,91.9963147 396.777657,91.8342618 396.385564,91.2850003 C393.361674,92.198847 386.383994,91.6099544 385.113078,91.6105911 C382.835902,91.6114525 370.468763,93.1349574 370.44832,90.3931653 C370.446734,90.1804781 370.513145,89.9898266 370.637993,89.8190805 Z M372.647292,88.8493756 C376.097495,88.0826762 382.530007,88.5949008 383.883464,88.5897099 C386.404297,88.5793733 388.925959,88.6158386 391.444859,88.7206406 C392.229981,88.7532815 394.150285,88.5959817 395.667003,88.7709284 C395.653444,88.6280584 395.644306,88.4974725 395.638835,88.3846713 C395.501259,85.555305 395.65099,82.6963644 395.738839,79.866998 C395.826965,77.0152356 395.962054,74.1657703 396.067584,71.3145822 C396.121914,69.8480848 395.766014,66.7868433 396.151589,64.6762775 C394.320476,64.6400575 392.400212,64.4097499 391.165122,64.409596 C388.265818,64.4093089 385.368449,64.3751406 382.469421,64.4348634 C379.338339,64.4994673 376.173554,64.5376554 373.064572,64.9674871 C372.894157,64.9910805 372.68939,65.0365776 372.462838,65.0917423 C372.936223,67.1521278 372.36164,70.4655882 372.35965,72.3744317 C372.353849,77.7230653 372.543084,83.042699 372.658283,88.3631941 C372.662059,88.5375079 372.658149,88.699445 372.647292,88.8493756 Z" id="Wireframy-Stuff" fill="#4A4A4A"></path>
                <path d="M341.528933,90.8519683 C339.66476,91.9852653 340.670054,96.5187406 341.31594,98.0867505 C342.377591,100.664879 344.531833,102.682246 346.856248,104.020552 C351.554529,106.725305 358.326938,106.006909 361.880139,110.696295 C361.916881,110.74482 363.145113,112.010196 363.424684,110.371552 C363.654253,109.026642 361.36133,106.97281 360.472892,106.298632 C357.946257,104.38176 354.705778,103.763572 351.783269,102.805998 C348.666552,101.784681 345.24623,99.9019782 343.93954,96.5580772 C343.476812,95.3736713 344.358897,89.1231663 341.528933,90.8519683" id="Fill-135" fill="#4A4A4A"></path>
                <path d="M384.14447,93.031505 C382.436105,93.5216337 383.565991,95.9679703 383.563228,97.1928614 C383.559913,98.7209604 383.090555,100.320267 382.185541,101.539703 C379.890685,104.632366 375.397109,105.095792 372.028171,105.982446 C369.581927,106.626762 363.729173,108.008139 363.500157,111.451099 C363.244345,115.29604 368.411431,110.61699 368.847915,110.425188 C373.677418,108.581535 379.925493,108.225495 383.653011,104.167218 C385.191755,102.492109 386.101189,100.256238 386.245671,97.9485842 C386.327166,96.6493267 386.340979,92.407 384.14447,93.031505" id="Fill-137" fill="#4A4A4A"></path>
                <path d="M361.264144,114.100005 C368.374413,112.150688 374.997367,117.335371 375.835527,124.793827 C376.720098,132.664886 371.019838,139.00153 363.502367,139.348955 C356.889634,139.65446 348.888993,134.727045 348.846726,127.135936 C348.806945,120.022035 355.34868,115.718837 361.264144,114.100005 Z M364.686123,119.405856 C363.470045,120.14349 363.247107,118.229777 362.386294,117.977104 C361.52189,117.723856 360.132876,118.669946 359.412954,119.22152 C358.190523,120.158421 354.80418,125.611569 353.162945,122.650124 C348.182331,131.600787 360.599472,138.299213 367.660292,134.911955 C375.415066,131.191916 373.905605,117.59149 364.729495,117.520569 C365.114043,118.064678 365.46102,118.932955 364.686123,119.405856 Z" id="Fill-139" fill="#4A4A4A"></path>
                <path d="M358.221491,124.754461 C358.221491,126.387362 360.699228,126.387362 360.699228,124.754461 C360.699228,123.140224 358.221491,123.071026 358.221491,124.754461" id="Fill-141" fill="#4A4A4A"></path>
                <path d="M362.580889,124.448009 C362.580889,126.448148 365.617492,126.448148 365.617492,124.448009 C365.617492,122.470553 362.580889,122.386138 362.580889,124.448009" id="Fill-143" fill="#4A4A4A"></path>
                <path d="M359.461271,129.108797 C356.978009,130.628856 364.079438,133.649163 364.359837,130.562817 C364.480837,129.231114 363.241554,129.590312 362.41555,129.492401 C361.625182,129.39851 360.211029,128.654559 359.461271,129.108797" id="Fill-145" fill="#4A4A4A"></path>
                <path d="M358.384178,139.893208 C358.492194,143.775762 358.440258,147.65602 359.147749,151.484594 C359.282285,152.211604 359.37566,154.849168 359.927895,155.389257 C361.286244,156.718089 361.308621,154.171257 361.361386,153.195307 C361.549792,149.699515 361.19729,146.094901 361.119386,142.591931 C361.102534,141.837931 361.294532,140.276238 360.952527,139.546356 C360.409961,138.387792 358.331413,138.043812 358.384178,139.893208" id="Fill-147" fill="#4A4A4A"></path>
                <path d="M355.728311,136.745186 C350.284416,143.103939 342.787941,142.635632 335.235662,143.192374 C331.245425,143.486681 327.21071,144.0908 323.99979,146.776889 C322.506352,148.026473 321.218724,149.591612 320.353491,151.375255 C319.975297,152.155097 318.181292,156.654404 320.875614,155.586859 C321.831183,155.208424 322.771834,152.232909 323.389818,151.352859 C324.566943,149.676602 326.073089,148.292929 327.879802,147.393354 C331.365044,145.658236 335.52656,145.68781 339.305461,145.467582 C343.255642,145.237592 347.495614,145.022533 351.126719,143.234869 C352.834808,142.393869 354.437368,141.344988 355.812016,139.993473 C356.303199,139.510236 357.356562,138.689622 357.435018,137.95084 C357.524802,137.106394 356.744932,135.560493 355.728311,136.745186" id="Fill-149" fill="#4A4A4A"></path>
                <path d="M328.246282,156.262358 C323.132513,156.440091 318.025374,156.655438 312.918787,156.991952 C311.87233,157.060863 308.383221,156.840923 309.271935,159.072487 C309.984123,160.861299 314.239289,159.678042 315.646812,159.591329 C320.96805,159.262566 326.311111,159.148289 331.621022,158.650121 C332.813894,158.538428 338.205577,158.582933 335.979232,156.382952 C334.920068,155.335794 329.709609,156.210388 328.246282,156.262358" id="Fill-151" fill="#4A4A4A"></path>
                <path d="M306.024964,158.829146 C304.413012,161.032284 305.153653,166.386948 305.275482,169.035423 C305.393443,171.602066 304.914416,176.294898 308.133624,176.692858 C307.111478,176.553314 308.909626,176.757462 309.202181,176.773829 C309.855802,176.810294 310.512462,176.822066 311.166911,176.829532 C312.678859,176.846759 314.191635,176.825799 315.703306,176.794215 C319.127772,176.723007 322.561078,176.619353 325.981124,176.422383 C327.418758,176.339403 335.217733,176.408601 335.526587,174.854373 C335.92108,172.868304 328.443391,173.991839 327.104932,174.055294 C323.844838,174.210918 320.579772,174.24365 317.316916,174.288155 C315.699715,174.310264 314.080857,174.326918 312.463656,174.293898 C311.795946,174.280403 309.15135,174.565809 308.74553,174.102096 C308.399382,173.707294 308.66956,170.078561 308.662101,169.523542 C308.638343,167.714056 308.640277,165.900264 308.702158,164.091641 C308.743873,162.873928 309.376498,160.557086 308.861005,159.413165 C308.359601,158.301116 306.898208,157.921532 306.024964,158.829146" id="Fill-153" fill="#4A4A4A"></path>
                <path d="M332.356111,158.932052 C332.449485,162.962478 332.478492,167.074449 333.393175,171.016151 C333.697609,172.328043 334.124147,175.033082 335.390504,175.712142 C336.71957,176.425082 337.867136,175.407498 337.95388,174.037033 C338.063278,172.313973 337.176773,170.051973 336.994997,168.284122 C336.782556,166.221389 336.65907,164.156647 336.586415,162.083864 C336.53144,160.525043 336.986709,158.187815 335.558743,157.182577 C334.276088,156.279557 332.314396,157.188894 332.356111,158.932052" id="Fill-155" fill="#4A4A4A"></path>
                <path d="M342.532681,157.947948 C340.942276,159.596641 341.653082,164.816641 341.851987,166.935076 C341.997573,168.48672 343.629416,176.119462 346.074555,172.139284 C347.156096,170.378611 345.782,165.723106 345.791669,163.670136 C345.798023,162.362551 346.242795,160.709264 346.028144,159.453076 C345.744429,157.792898 343.975288,156.448561 342.532681,157.947948" id="Fill-157" fill="#4A4A4A"></path>
                <path d="M379.943409,171.571692 C380.293905,171.96638 380.449066,172.528437 380.221501,173.078511 C379.674791,174.399303 377.662821,174.114184 376.569953,174.208937 C372.922825,174.525352 369.258846,174.736392 365.598734,174.769699 C362.062384,174.802145 358.52493,174.707679 354.988857,174.743857 C352.042866,174.774006 348.974218,175.395352 346.055576,175.270739 C344.837012,175.218481 343.535848,174.803293 343.844702,173.164362 C344.118471,171.710343 345.524337,171.698857 346.670521,171.577402 C350.123165,171.2116 353.577743,171.082105 357.048067,171.095026 C364.338455,171.121442 371.623042,171.082105 378.913154,171.042481 C379.212782,171.068173 379.495059,171.187373 379.727522,171.369008 C379.346227,170.887392 379.529506,170.173978 379.458317,169.477716 C379.266595,167.600755 379.143109,165.755953 378.801105,163.87928 C378.527611,162.378171 378.321525,159.828468 376.985276,158.884102 C375.526093,157.853023 372.286719,158.194132 370.545203,158.14733 C365.859353,158.021567 361.146707,158.367845 356.48213,158.809161 C354.354961,159.010439 352.201547,159.163765 350.098413,159.561151 C348.927365,159.782815 345.491296,161.571914 344.555895,160.471062 C342.303582,157.820003 352.200995,156.731498 353.544703,156.587072 C358.321716,156.07426 363.104532,155.689508 367.907789,155.641845 C371.151584,155.615429 376.702666,155.327726 379.087582,158.097369 C380.519968,159.760419 381.022477,162.500201 381.581342,164.57528 C382.010643,166.169132 383.175061,169.043003 382.347675,170.689112 C381.973349,171.433924 381.370559,172.069052 380.455876,171.805181 C380.242165,171.743557 380.074643,171.664725 379.943409,171.571692 Z" id="Wireframy-Stuff" fill="#4A4A4A"></path>
                <path d="M404.367272,150.551483 C404.575016,150.829424 404.575016,150.829424 404.367272,150.551483 M372.040382,134.127721 C369.139144,135.902463 374.509003,141.110117 375.876745,141.915513 C378.955062,143.727869 383.184813,144.001216 386.621987,144.510869 C390.971909,145.156335 395.706103,145.39379 399.886404,146.877384 C401.667977,147.509642 402.799797,148.495929 403.966149,150.011968 C404.55706,150.780038 405.980053,154.090919 407.275968,153.307057 C409.885203,151.728711 402.854496,145.104939 401.305254,144.392859 C397.783546,142.773741 393.620649,142.320364 389.855283,141.69184 C386.354018,141.106958 382.777336,140.672246 379.362539,139.641453 C377.484829,139.074661 376.150238,138.160444 375.067868,136.410681 C374.393251,135.320166 373.839911,133.032038 372.040382,134.127721" id="Line" fill="#4A4A4A"></path>
                <path d="M387.605512,172.469188 C386.737817,170.738039 386.338897,167.412135 386.2615,166.755276 C385.927784,163.925336 385.902644,161.128702 385.948503,158.281247 C385.975395,156.718195 387.694685,155.972666 388.808723,156.84959 C390.298579,156.200356 392.819399,156.10279 394.174044,155.960443 C396.400113,155.726433 398.644966,155.639433 400.877665,155.500462 C406.089505,155.176294 411.29582,154.591413 416.517329,154.470819 C418.079832,154.436938 420.172469,154.290215 421.421973,155.490413 C422.84469,156.857146 423.128129,160.247561 423.554391,162.074274 C424.017396,164.058047 424.57046,166.076561 424.764115,168.11173 C424.809501,168.588444 424.931949,169.407235 424.876848,170.143881 C425.527387,170.236099 425.916079,170.892422 425.850214,171.609359 C425.728385,172.940201 423.956758,173.121666 422.920246,173.332132 C419.473404,174.032726 415.788705,173.873369 412.294347,173.976161 C404.983792,174.190359 397.165755,175.41927 389.88255,174.687666 C388.636029,174.562398 387.296865,174.104109 387.605512,172.469188 Z M390.237265,170.903186 C390.52685,170.900814 390.812882,170.906385 391.079566,170.901587 C394.756529,170.834686 398.43073,170.718686 402.105207,170.571676 C405.852616,170.422082 409.600025,170.254973 413.350196,170.210181 C416.331218,170.174906 419.401008,170.442609 422.403229,170.322003 C421.757905,168.563489 421.855542,165.795265 421.51148,163.974205 C421.169752,162.166155 421.039912,160.021878 420.341261,158.323799 C419.555037,156.413532 418.871304,156.855423 416.823973,157.000136 C414.718629,157.148868 412.616046,157.357898 410.512912,157.537928 C405.889772,157.933591 401.262766,158.183967 396.636311,158.519334 C394.23668,158.693177 391.940631,159.406132 389.593744,159.685716 C389.558411,160.557449 389.440322,161.437124 389.453635,162.073355 C389.492863,163.949742 389.670496,165.81292 389.827133,167.681553 C389.890801,168.441503 390.19231,169.753174 390.237265,170.903186 Z" id="Wireframy-Stuff" fill="#4A4A4A"></path>
            </g>
            <ellipse id="Oval" fill="#F2F2F2" cx="252" cy="363" rx="248" ry="17"></ellipse>
            <g id="Group-2" transform="translate(22.000000, 128.000000)">
                <g id="Group">
                    <g id="Bottom">
                        <g id="Seat" transform="translate(11.612069, 144.000000)">
                            <polygon id="Seat-Stuff" fill="#EA6967" points="17.3832141 0 66.0003025 0 72.3706897 85 0 85"></polygon>
                            <polygon id="Seat-Stuff" fill="#D25F5C" points="17.3832141 0 32.3357283 0 41.2851334 85 0 85"></polygon>
                        </g>
                        <g id="Group-18">
                            <g id="Head" transform="translate(47.747345, 31.000000) rotate(-10.000000) translate(-47.747345, -31.000000) translate(33.747345, 3.000000)">
                                <g transform="translate(0.147059, 2.355769)" fill="#A17A55">
                                    <path d="M5.22467319,24.8726876 C2.31084804,20.9721461 0.338710237,16.1919787 0.668255623,10.8356639 C1.61776764,-4.59737061 20.4556885,-1.20229966 24.1200541,6.58697086 C27.7844197,14.3762414 27.3489978,34.134372 22.6131318,35.5265319 C20.7244749,36.0817234 16.7010743,34.7217266 12.6061911,31.9069515 L15.1764706,52.6442308 L0,52.6442308 L5.22467319,24.8726876 Z"></path>
                                </g>
                                <path d="M13.5120314,14.8958623 C14.0929638,24.1245953 15.6296839,28.7389618 18.1221916,28.7389618 C21.8611722,28.7389618 25.0334315,26.0320031 26.6740064,26.0320031 C27.8699298,26.0320031 27.6029168,27.7387552 26.8101962,29.0041905 C26.1561762,30.0482155 22.9711536,31.0545307 22.9711536,32.6731198 C22.9711536,34.291709 25.4875856,33.0394957 25.4875856,33.9994494 C25.4875856,35.5873298 25.9298448,38.5728289 23.5132741,38.5728289 C21.0676239,38.5728289 14.0555116,37.5564305 12.8538254,33.416927 C12.0782924,30.7454125 11.5768545,25.2095347 11.3495119,16.8092936 C11.2011509,16.7891883 11.0501639,16.7788462 10.8970588,16.7788462 C8.80162551,16.7788462 7.10294118,18.7160756 7.10294118,21.1057692 C7.10294118,22.3189074 7.54071397,23.4154397 8.24592861,24.2011158 C7.36802123,25.6142905 6.3841389,27.0905407 5.25671484,28.6138391 C1.02122692,25.7158708 -2.12174598,17.2324312 2.01913093,9.08289304 C3.16368235,5.09056098 5.75478658,2.95810637 8.81494304,1.96793925 C11.2938275,0.785399281 13.8671442,0.652066853 16.0393899,1.36098891 C20.297593,1.77752191 24.0999642,3.2583028 25.1775868,4.13770211 C25.1775868,8.73521962 24.3964473,10.0992896 17.7244506,9.97905187 C16.0850329,10.9664443 14.8247312,12.666733 13.5120314,14.8958623 Z" id="Hair" fill="#161414"></path>
                            </g>
                            <path d="M115.510575,135.270457 C120.699758,131.876563 129.405978,136.23702 129.4,141.09094 C129.382115,155.613857 117.21371,224.060314 116.578381,228.387176 C115.943052,232.714038 109.13709,233.856926 108.740756,228.401356 C108.110123,219.720623 106.938484,189.669734 108.110756,175.760291 C108.594646,170.018765 109.115769,164.550727 109.628804,159.672469 C103.243598,172.231855 93.3685541,190.2138 80.0036707,213.618302 L72.7482409,210.007829 C78.4457043,189.561986 83.1175387,175.127765 86.7637441,166.705166 C93.0069329,152.283631 98.8609431,139.933509 101.324707,135.583279 C105.200209,128.740364 111.946141,131.127959 115.510575,135.270457 Z" id="Skin" fill="#A17A55"></path>
                            <path d="M85.4087219,204.9648 L86.8331531,136.068958 C88.8641177,124.206531 108.883964,130.3066 109.045671,136.699138 C109.412795,151.212179 102.579046,201.116955 102.688424,205.440874 L85.4087219,204.9648 Z" id="LegLower" fill="#AC6F3B" transform="translate(97.234337, 167.379473) rotate(20.000000) translate(-97.234337, -167.379473) "></path>
                            <g id="Right-Shoe" transform="translate(85.566987, 217.473912) rotate(30.000000) translate(-85.566987, -217.473912) translate(67.066987, 209.973912)" fill="#FFFFFF">
                                <path d="M1.39401596,5.96971722 C0.879972533,7.57793727 0.62295082,8.81180747 0.62295082,9.67132781 C0.62295082,10.888546 0.810094095,12.6647701 1.18438064,15 C2.48755548,15 14.1994072,15 36.3199358,15 C37.2329843,11.7292924 36.7059198,9.9635426 34.7387421,9.70275063 C32.7715645,9.44195865 31.1373966,9.20648438 29.8362384,8.99632781 L13.9021024,1.29929297 C13.4047989,1.05906891 12.8069146,1.26747303 12.5666905,1.7647766 C12.5541538,1.79072966 12.542745,1.81721259 12.5324961,1.84415122 L11.6262639,4.22611915 C9.80517191,5.14679021 8.3253456,5.60712573 7.18678497,5.60712573 C6.41112897,5.60712573 5.38767023,5.32250878 4.11640875,4.75327489 L4.11640812,4.75327629 C3.108289,4.30186989 1.92510979,4.75317471 1.47370338,5.76129383 C1.44328299,5.82923123 1.41667912,5.89881396 1.39401596,5.96971722 Z" id="shoe"></path>
                            </g>
                            <g id="Right-Shoe" transform="translate(105.000000, 219.027759)" fill="#FFFFFF">
                                <path d="M1.39401596,5.96971722 C0.879972533,7.57793727 0.62295082,8.81180747 0.62295082,9.67132781 C0.62295082,10.888546 0.810094095,12.6647701 1.18438064,15 C2.48755548,15 14.1994072,15 36.3199358,15 C37.2329843,11.7292924 36.7059198,9.9635426 34.7387421,9.70275063 C32.7715645,9.44195865 31.1373966,9.20648438 29.8362384,8.99632781 L13.9021024,1.29929297 C13.4047989,1.05906891 12.8069146,1.26747303 12.5666905,1.7647766 C12.5541538,1.79072966 12.542745,1.81721259 12.5324961,1.84415122 L11.6262639,4.22611915 C9.80517191,5.14679021 8.3253456,5.60712573 7.18678497,5.60712573 C6.41112897,5.60712573 5.38767023,5.32250878 4.11640875,4.75327489 L4.11640812,4.75327629 C3.108289,4.30186989 1.92510979,4.75317471 1.47370338,5.76129383 C1.44328299,5.82923123 1.41667912,5.89881396 1.39401596,5.96971722 Z" id="shoe"></path>
                            </g>
                            <path d="M131.145335,146.027829 C131.145335,164.257885 123.196768,206.781434 123.191738,210.795535 L106.09,210.809843 C108.593165,172.8665 109.480768,153.690447 108.75281,153.281686 C107.660873,152.668544 63.9907777,158.030709 50.8934054,158.030709 C32.0069298,158.030709 24.1939731,145.058492 23.56,121.027759 L60.9734054,121.027759 C68.5911107,121.915601 108.32576,130.644923 123.082421,133.64575 C129.4,134.930455 131.145335,141.005918 131.145335,146.027829 Z" id="Leg-and-Butt" fill="#CB8A52"></path>
                            <g id="Body/Long-Sleeve-1" transform="translate(0.000000, 44.027759)">
                                <path d="M88.0357419,64.339781 L105.851338,84.2901987 C111.03502,86.828351 115.282309,89.6309835 118.593204,92.6980965 C119.337775,93.7290575 120.148362,95.7044321 116.645193,94.8204803 C113.142024,93.9365284 109.422583,93.1875969 108.764169,94.4953558 C108.105755,95.8031148 110.045826,97.8070662 108.828995,99.5185861 C108.017774,100.659599 105.289575,97.0302595 100.644398,88.6305663 L82.1185342,76.0926899 L88.0357419,64.339781 Z" id="Skin" fill="#A17A55"></path>
                                <path d="M42.2417045,6.31570966 L47.5659194,4.77507482 C59.2331658,30.7054426 77.6437406,53.5832401 102.797644,73.4084671 L82.5423973,98.5275524 C56.580615,69.4369749 44.2824126,39.4890828 42.2417045,6.31570966 Z" id="Coat-Back" fill="#191847" transform="translate(72.519674, 51.651314) rotate(5.000000) translate(-72.519674, -51.651314) "></path>
                                <path d="M22.6015625,82.2994652 L71.0273438,82.2994652 C59.8082031,50.9860686 54.1986328,24.3857095 54.1986328,2.49838818 L39.5909668,0 C28.1107139,21.1945718 24.8686603,47.289381 22.6015625,82.2994652 Z" id="Shirt" fill="#DDE3E9"></path>
                                <path d="M39.2816875,0.0118539146 C39.2836054,0.00790192274 39.2855231,0.00395061782 39.2874407,1.82611428e-14 L40.2409691,-1.31697266e-18 C41.3819484,0.0451009268 43.1198063,0.126359201 45.4545429,0.243774824 L48.9842792,11.8228813 C49.357647,25.9405192 51.5380584,54.3913688 55.5255134,97.1754301 L23.781442,97.1754301 C23.8646588,100.130349 24.00187,103.11287 24.1930756,106.122995 L0.58984375,106.122995 C4.12047089,60.3991179 17.0138797,25.0247863 39.2700703,5.68434189e-14 L39.2816875,0.01185391 Z" id="Coat-Front" fill="#2F3676"></path>
                                <path d="M25.8783088,59.3661426 C26.7817409,77.7859115 29.0436588,90.4838283 32.6640625,97.459893 L23.7896173,97.459893 C23.4010973,84.2074083 24.0973279,71.5095063 25.8783081,59.3661476 Z" id="Shade" fill-opacity="0.1" fill="#000000"></path>
                                <polygon id="Light" fill-opacity="0.2" fill="#FFFFFF" points="30.8470888 75.0802139 46.5 66.7270144 46.5 75.0802139"></polygon>
                            </g>
                        </g>
                    </g>
                </g>
            </g>
            <rect id="Rectangle" fill="#EA6A67" transform="translate(152.977659, 119.833504) rotate(-5.000000) translate(-152.977659, -119.833504) " x="142.977659" y="109.833504" width="20" height="20"></rect>
            <rect id="Rectangle" fill="#B3A1CC" x="163.144155" y="181" width="20" height="20"></rect>
            <rect id="Rectangle" fill="#B3A1CC" transform="translate(439.144155, 47.000000) rotate(10.000000) translate(-439.144155, -47.000000) " x="429.144155" y="37" width="20" height="20"></rect>
            <rect id="Rectangle" fill="#B3A1CC" opacity="0.200000003" transform="translate(446.144155, 55.000000) rotate(3.000000) translate(-446.144155, -55.000000) " x="436.144155" y="45" width="20" height="20"></rect>
            <rect id="Rectangle" fill="#6EBF70" transform="translate(387.144155, 199.000000) rotate(-10.000000) translate(-387.144155, -199.000000) " x="377.144155" y="189" width="20" height="20"></rect>
            <rect id="Rectangle" fill="#EE934F" transform="translate(424.977659, 111.833504) rotate(5.000000) translate(-424.977659, -111.833504) " x="414.977659" y="101.833504" width="20" height="20"></rect>
            <rect id="Rectangle" fill="#EE934F" transform="translate(59.144155, 76.000000) rotate(-7.000000) translate(-59.144155, -76.000000) " x="49.144155" y="66" width="20" height="20"></rect>
            <rect id="Rectangle" fill="#EE934F" opacity="0.449999988" transform="translate(413.977659, 115.833504) rotate(5.000000) translate(-413.977659, -115.833504) " x="403.977659" y="105.833504" width="20" height="20"></rect>
            <rect id="Rectangle" fill="#9BD4E4" transform="translate(310.144155, 57.000000) rotate(2.000000) translate(-310.144155, -57.000000) " x="300.144155" y="47" width="20" height="20"></rect>
            <rect id="Rectangle" fill="#6EBF70" transform="translate(305.144155, 119.000000) rotate(-2.000000) translate(-305.144155, -119.000000) " x="295.144155" y="109" width="20" height="20"></rect>
            <rect id="Rectangle" fill="#6EBF70" transform="translate(152.144155, 41.000000) rotate(-2.000000) translate(-152.144155, -41.000000) " x="142.144155" y="31" width="20" height="20"></rect>
            <rect id="Rectangle" fill="#6EBF70" opacity="0.300000012" transform="translate(310.144155, 128.000000) rotate(-2.000000) translate(-310.144155, -128.000000) " x="300.144155" y="118" width="20" height="20"></rect>
            <rect id="Rectangle" fill="#EA6A67" opacity="0.560000002" transform="translate(161.977659, 115.833504) rotate(5.000000) translate(-161.977659, -115.833504) " x="151.977659" y="105.833504" width="20" height="20"></rect>
            <g id="A-Human/Standing" transform="translate(389.500000, 239.000000) scale(-1, 1) translate(-389.500000, -239.000000) translate(319.000000, 115.000000)">
                <g id="Head/Front" transform="translate(34.500000, 33.500000) rotate(-10.000000) translate(-34.500000, -33.500000) translate(18.000000, 3.000000)">
                    <g id="Head" transform="translate(3.132353, 5.548077)" fill="#FACCA1">
                        <path d="M5.52843326,26.1992309 C2.44519968,22.0906605 0.358402693,17.0555509 0.707107694,11.4135659 C1.7118239,-4.84256371 21.6449727,-1.26642231 25.5223828,6.93827597 C29.399793,15.1429742 28.9390558,35.9548718 23.9278487,37.4212803 C21.9293862,38.0060819 17.672067,36.5735521 13.3391092,33.6086555 L16.0588235,55.4519231 L0,55.4519231 L5.52843326,26.1992309 Z"></path>
                    </g>
                    <path d="M7.42684257,35.4066739 C5.41130215,25.2270216 -0.330643553,18.2878937 0.54628929,13.7380244 C1.13091119,10.7047782 2.6891038,8.81850892 5.22086712,8.07921648 C6.53027114,2.06562084 10.7533678,-0.492195775 17.890157,0.405766639 C28.5953409,1.75271026 35.1291892,6.79973979 32.307543,17.9054072 C29.7137866,17.9054072 26.5825684,16.8405091 22.2527443,18.6650226 C20.8789086,19.2439334 19.896301,21.0391865 19.3049216,24.050782 L17.3482912,24.050782 C15.449299,20.4768415 13.5768805,19.1635159 11.7310357,20.1108052 C9.88519097,21.0580945 9.46560045,23.359064 10.4722642,27.0137136 L9.50842587,35.4066739 L7.42684257,35.4066739 Z" id="Hair" fill="#482B10"></path>
                </g>
                <g id="Bottom/Skinny-Jeans-1" transform="translate(0.000000, 124.000000)">
                    <g id="Seat" transform="translate(0.612069, 30.000000)">
                        <polygon id="Seat-Stuff" fill="#EA6A67" points="17.3832141 0 66.0003025 0 72.3706897 89 0 89"></polygon>
                        <polygon id="Seat-Stuff" fill-opacity="0.1" fill="#000000" points="17.3832141 0 32.3357283 0 41.2851334 89 0 89"></polygon>
                    </g>
                    <path d="M110.329536,121.365633 C102.257482,101.075801 96.4198533,83.4082352 94.0766509,74.0867857 C90.0645196,58.1262012 87.0123314,44.0818189 86.2409028,38.8369747 C84.4013326,26.329971 100.39193,25.6016633 102.505551,31.8174261 C105.704601,41.2252301 111.289417,72.1353481 118,118.823931 L110.329536,121.365633 Z M16.6983649,57.6904508 C24.1044662,54.365814 50.0402387,43.9613249 62.5490617,41.0180854 C66.1435958,40.1723164 69.6275234,39.3865016 72.9030266,38.6763434 C82.6389812,36.5655022 87.6831192,56.5126878 78.3062074,58.0453396 C54.953991,61.8622483 21.848281,65.8038269 19.0151556,66.2461622 C15.0444095,66.866114 12.0438611,59.7798813 16.6983649,57.6904508 Z" id="Skin" fill="#FACCA1"></path>
                    <path d="M78.5998861,28.2015901 L38.54,5.04179363 L38.54,0 L43.304177,0 C82.0603219,11.2156841 101.864681,18.4033703 102.717253,21.5630587 C102.726425,21.5970532 102.734836,21.6310923 102.742483,21.6651759 C102.761987,21.6942493 102.781161,21.7234984 102.8,21.7529231 C110.480649,33.7492653 115.080559,92.3163645 116.590332,96.7016704 L101.87247,99.1952949 C96.242497,75.4856213 78.23,58.9685993 78.7084771,30.5718025 C78.5792778,29.7388143 78.5466324,28.9488667 78.5998861,28.2015901 Z" id="Leg-Back" fill="#40484A"></path>
                    <path d="M48.6099731,43.5064972 C42.3503425,42.0578265 36.5296016,40.7182139 31.939304,39.803834 C13.2828525,36.0874989 7.84247249,24.745811 11.0591156,2.00092713e-14 L45.4333104,-4.97379915e-14 C51.0483938,1.83185937 80.229643,15.7297374 95.3701719,23.1217307 C103.562796,27.1215791 102.946003,39.6398989 99.3471958,46.5825505 C99.8124721,47.7106586 99.907879,48.4907842 99.5035352,48.7357256 C70.6464349,66.2166361 45.841578,61.2429516 38.0704253,64.481906 L32.9621287,51.5773036 L48.6099731,43.5064972 Z" id="Leg-Front" fill="#555656"></path>
                    <g id="Right-Shoe" transform="translate(24.500000, 72.000000) rotate(64.000000) translate(-24.500000, -72.000000) translate(6.000000, 64.000000)" fill="#FFFFFF">
                        <path d="M1.40650047,6.25894554 C0.884134036,8.00675712 0.62295082,9.34597905 0.62295082,10.2766113 C0.62295082,11.5839938 0.810094095,13.4917901 1.18438064,16 C2.48755548,16 14.1994072,16 36.3199358,16 C37.2329843,12.4870178 36.7059198,10.5904717 34.7387421,10.3103618 C32.7715645,10.0302519 31.1373966,9.77733508 29.8362384,9.55161135 L13.939855,1.30401315 C13.4496251,1.04966478 12.8460252,1.24088454 12.5916768,1.73111443 C12.5704567,1.77201394 12.5520888,1.81433118 12.5367043,1.85776365 L11.6262639,4.42805391 C9.80517191,5.41692281 8.3253456,5.91135727 7.18678497,5.91135727 C6.42453402,5.91135727 5.42297147,5.61613261 4.18209734,5.02568329 L4.18210063,5.02567637 C3.1846864,4.5510734 1.99138067,4.97489567 1.5167777,5.9723099 C1.47272625,6.06488739 1.4358585,6.16071505 1.40650047,6.25894554 Z" id="shoe"></path>
                    </g>
                    <g id="Right-Shoe" transform="translate(104.000000, 107.000000)" fill="#FFFFFF">
                        <path d="M1.40650047,6.25894554 C0.884134036,8.00675712 0.62295082,9.34597905 0.62295082,10.2766113 C0.62295082,11.5839938 0.810094095,13.4917901 1.18438064,16 C2.48755548,16 14.1994072,16 36.3199358,16 C37.2329843,12.4870178 36.7059198,10.5904717 34.7387421,10.3103618 C32.7715645,10.0302519 31.1373966,9.77733508 29.8362384,9.55161135 L13.939855,1.30401315 C13.4496251,1.04966478 12.8460252,1.24088454 12.5916768,1.73111443 C12.5704567,1.77201394 12.5520888,1.81433118 12.5367043,1.85776365 L11.6262639,4.42805391 C9.80517191,5.41692281 8.3253456,5.91135727 7.18678497,5.91135727 C6.42453402,5.91135727 5.42297147,5.61613261 4.18209734,5.02568329 L4.18210063,5.02567637 C3.1846864,4.5510734 1.99138067,4.97489567 1.5167777,5.9723099 C1.47272625,6.06488739 1.4358585,6.16071505 1.40650047,6.25894554 Z" id="shoe"></path>
                    </g>
                </g>
                <g id="Body/Long-Sleeve-1" transform="translate(3.000000, 37.000000)">
                    <path d="M74.2208983,14.840716 L98.0588201,6.68719696 C100.542143,4.82822402 102.06482,3.97530251 103.374045,3.15423494 C104.815143,2.25046423 105.657527,1.41632431 107.723069,0.460856033 C108.869561,0.214975715 108.699659,1.0660692 106.74906,3.15423494 C104.79846,5.24240068 103.708228,5.03612193 104.385438,6.32157841 C105.062649,7.60703488 106.549302,9.6009562 105.136326,11.1835315 C103.723349,12.7661069 102.630126,13.4405571 98.841486,13.9648076 L78.1155737,23.8651571 L74.2208983,14.840716 Z M68.3015769,61.564325 L88.3625989,78.3491497 C93.8035611,80.0219844 98.3493092,82.1032732 101.999843,84.5930162 C102.862163,85.4883118 103.904357,87.3014341 100.328109,86.9880812 C96.7518616,86.6747283 92.9778174,86.5283863 92.4843647,87.9182329 C91.9909121,89.3080795 94.1550633,90.9701837 93.1575806,92.8454507 C92.4925921,94.0956288 89.3509193,90.9608537 83.7325623,83.4411256 L63.8668879,74.0549607 L68.3015769,61.564325 Z" id="Skin" fill="#FACCA1"></path>
                    <path d="M28.7497378,22.4737458 C45.3091403,42.0650378 65.1730452,55.1619822 92.0815589,67.0996342 L86.5888328,80.1049712 C59.0868482,76.2646812 44.3602285,73.4475107 32.2831626,53.9816499 C29.252064,49.0961134 23.5883378,32.4504516 20.2358618,23.7921328 L28.7497378,22.4737458 Z" id="Coat-Back" fill="#7DB6C6" transform="translate(56.158710, 51.289358) rotate(15.000000) translate(-56.158710, -51.289358) "></path>
                    <path d="M6.6015625,93.6898396 L55.0273438,93.6898396 C44.0580935,55.5717704 38.454584,29.4098974 38.2168153,15.2042205 C38.2046936,14.4800014 37.0308006,13.203825 36.5114446,13.3709516 C32.7134503,14.5931309 28.6492966,14.136147 24.3189837,12 C12.8387308,33.0375749 8.86866029,58.9390892 6.6015625,93.6898396 Z" id="Shirt" fill="#F2F2F2"></path>
                    <path d="M28.2318902,11.9998254 C42.0283698,11.9973528 64.9015058,13.7725797 91.4357451,7 L94,17.1867402 C73.2642202,27.7894524 52.252809,35.8682317 34.1562224,33.6231191 C43.9526746,75.1689244 45.2341564,111.321922 26.9828244,111.321922 C19.0088039,111.321922 10.4019398,111.321922 1.16223211,111.321922 C-2.93867397,79.9200476 7.83930971,36.3805585 17.8312843,14.4195916 C18.2128477,13.5809684 19.0252345,12 20.9387387,12 C22.5708251,12 25.0017356,12 28.2314701,12 Z" id="Coat-Front" fill="#9BD4E4"></path>
                </g>
            </g>
            <rect id="Rectangle" fill="#D2D9DF" x="354" y="248" width="11" height="120"></rect>
            <g id="Group-5" opacity="0.62406994" transform="translate(124.000000, 238.000000)" fill="#F4DC9E">
                <rect id="Rectangle" x="0" y="0" width="257" height="10"></rect>
            </g>
            <rect id="Rectangle" fill="#D2D9DF" x="140" y="248" width="11" height="120"></rect>
            <path d="M11.8703575,265 L31.3569534,283.321769 C36.7421241,285.398475 41.2175162,287.820267 44.7831297,290.587145 C45.6147214,291.549289 46.5943888,293.4465 43.0275088,292.871233 C39.4606289,292.295966 35.6900684,291.874055 35.1481384,293.234222 C34.6062084,294.594389 36.7135528,296.421627 35.650521,298.232688 C34.9418331,299.440062 31.9076978,296.062311 26.5481152,288.099435 L7,277.223904 L11.8703575,265 Z" id="Arm" fill="#A17A55" transform="translate(26.284007, 281.735568) scale(-1, 1) rotate(40.000000) translate(-26.284007, -281.735568) "></path>
            <g id="Group-20" transform="translate(27.000000, 297.000000) rotate(20.000000) translate(-27.000000, -297.000000) translate(14.000000, 296.000000)">
                <path d="M24,0 L25.6439475,0.842107452 C25.7422569,0.892466164 25.7811286,1.01298548 25.7307699,1.11129488 C25.7110377,1.14981569 25.6793422,1.18089613 25.6404421,1.19986974 L24,2 L24,0 Z" id="Rectangle" fill="#D2C39B"></path>
                <path d="M0.5,0 L24,0 L24,2 L0.5,2 C0.223857625,2 3.38176876e-17,1.77614237 0,1.5 L0,0.5 C-3.38176876e-17,0.223857625 0.223857625,5.07265313e-17 0.5,0 Z" id="Rectangle" fill="#40484A"></path>
            </g>
            <path d="M20.3590916,261.910353 L39.8456875,280.232122 C45.2308582,282.308828 44.1788025,288.784409 43.6368725,290.144576 C43.0949425,291.504743 45.2022869,293.33198 44.1392551,295.143041 C43.4305672,296.350415 40.3964319,292.972664 35.0368493,285.009788 L15.4887341,274.134258 L20.3590916,261.910353 Z" id="Arm" fill="#A17A55" transform="translate(29.966104, 278.645921) scale(-1, 1) rotate(40.000000) translate(-29.966104, -278.645921) "></path>
        </g>
    </g>
</svg>